<svg width="1400" viewBox="0 0 680 230" role="img" xmlns="http://www.w3.org/2000/svg">
  <title>Financial Awareness Programme — Aditya Sinha, ARN-286556</title>
  <desc>Google Site banner for Aditya Sinha, AMFI Registered MF Distributor</desc>
  <defs>
    <clipPath id="bc">
      <rect x="0" y="0" width="680" height="230"/>
    </clipPath>
  </defs>
  <rect x="0" y="0" width="680" height="230" fill="#0F2548"/>
  <circle cx="618" cy="10" r="120" fill="#0E7490" opacity="0.28" clip-path="url(#bc)"/>
  <circle cx="660" cy="40" r="75" fill="#D4A017" opacity="0.22" clip-path="url(#bc)"/>
  <circle cx="570" cy="-5" r="45" fill="#FFFFFF" opacity="0.07" clip-path="url(#bc)"/>
  <circle cx="10" cy="210" r="85" fill="#0E7490" opacity="0.18" clip-path="url(#bc)"/>
  <circle cx="40" cy="245" r="50" fill="#D4A017" opacity="0.14" clip-path="url(#bc)"/>
  <g opacity="0.1" fill="#ffffff">
    <circle cx="105" cy="45" r="2.2"/> <circle cx="148" cy="45" r="2.2"/> <circle cx="191" cy="45" r="2.2"/> <circle cx="234" cy="45" r="2.2"/>
    <circle cx="105" cy="88" r="2.2"/> <circle cx="148" cy="88" r="2.2"/> <circle cx="191" cy="88" r="2.2"/> <circle cx="234" cy="88" r="2.2"/>
    <circle cx="105" cy="131" r="2.2"/> <circle cx="148" cy="131" r="2.2"/> <circle cx="191" cy="131" r="2.2"/>
    <circle cx="105" cy="174" r="2.2"/> <circle cx="148" cy="174" r="2.2"/>
  </g>
  <rect x="0" y="0" width="7" height="230" fill="#D4A017"/>
  <rect x="42" y="24" width="186" height="26" rx="13" fill="#D4A017" opacity="0.2"/>
  <rect x="42" y="24" width="186" height="26" rx="13" fill="none" stroke="#FFD150" stroke-width="1.2"/>
  <text x="135" y="42" text-anchor="middle" font-family="'Segoe UI',Arial,sans-serif" font-size="12" font-weight="800" fill="#FFD150" letter-spacing="1">AMFI REGISTERED DISTRIBUTOR</text>
  <text x="42" y="96" font-family="'Segoe UI',Arial,sans-serif" font-size="42" font-weight="900" fill="#FFFFFF" letter-spacing="0.5">Your Money,</text>
  <text x="42" y="144" font-family="'Segoe UI',Arial,sans-serif" font-size="42" font-weight="900" fill="#FFD150" letter-spacing="0.5">Your Future.</text>
  <rect x="42" y="155" width="360" height="2.5" fill="#FFD150" opacity="0.8"/>
  <text x="42" y="178" font-family="'Segoe UI',Arial,sans-serif" font-size="15" font-weight="700" fill="#E8F4FF" letter-spacing="0.3">A Financial Awareness Programme for School Educators</text>
  <rect x="42" y="192" width="100" height="26" rx="13" fill="#0E7490"/>
  <text x="92" y="209" text-anchor="middle" font-family="'Segoe UI',Arial,sans-serif" font-size="11.5" font-weight="700" fill="#FFFFFF">Risk Assessment</text>
  <rect x="152" y="192" width="118" height="26" rx="13" fill="#0E7490"/>
  <text x="211" y="209" text-anchor="middle" font-family="'Segoe UI',Arial,sans-serif" font-size="11.5" font-weight="700" fill="#FFFFFF">Education Planning</text>
  <rect x="280" y="192" width="122" height="26" rx="13" fill="#0E7490"/>
  <text x="341" y="209" text-anchor="middle" font-family="'Segoe UI',Arial,sans-serif" font-size="11.5" font-weight="700" fill="#FFFFFF">Retirement Planning</text>
  <text x="42" y="226" font-family="'Segoe UI',Arial,sans-serif" font-size="12.5" font-weight="400" fill="#90B8D8">Presented by </text>
  <text x="127" y="226" font-family="'Segoe UI',Arial,sans-serif" font-size="13" font-weight="800" fill="#FFFFFF">ADITYA SINHA</text>
  <text x="235" y="226" font-family="'Segoe UI',Arial,sans-serif" font-size="12.5" font-weight="400" fill="#90B8D8">  ·  Insurance Advisor  ·  ARN-286556</text>
  <rect x="426" y="34" width="230" height="162" rx="12" fill="#FFFFFF" opacity="0.08"/>
  <rect x="426" y="34" width="230" height="162" rx="12" fill="none" stroke="#FFD150" stroke-width="1" opacity="0.35"/>
  <text x="541" y="56" text-anchor="middle" font-family="'Segoe UI',Arial,sans-serif" font-size="11" font-weight="700" fill="#FFD150" letter-spacing="0.8">WEALTH GROWTH OVER TIME</text>
  <rect x="440" y="172" width="204" height="1.5" fill="#FFFFFF" opacity="0.25"/>
  <rect x="447" y="144" width="28" height="28" rx="5" fill="#1D8FAD"/>
  <text x="461" y="140" text-anchor="middle" font-family="'Segoe UI',Arial,sans-serif" font-size="10" font-weight="700" fill="#A8D8EE">Yr 1</text>
  <rect x="488" y="128" width="28" height="44" rx="5" fill="#1D8FAD"/>
  <text x="502" y="124" text-anchor="middle" font-family="'Segoe UI',Arial,sans-serif" font-size="10" font-weight="700" fill="#A8D8EE">Yr 5</text>
  <rect x="529" y="106" width="28" height="66" rx="5" fill="#D4A017"/>
  <text x="543" y="102" text-anchor="middle" font-family="'Segoe UI',Arial,sans-serif" font-size="10" font-weight="700" fill="#FFD150">Yr 10</text>
  <rect x="570" y="78" width="28" height="94" rx="5" fill="#D4A017"/>
  <text x="584" y="74" text-anchor="middle" font-family="'Segoe UI',Arial,sans-serif" font-size="10" font-weight="700" fill="#FFD150">Yr 20</text>
  <rect x="611" y="48" width="28" height="124" rx="5" fill="#FFD150"/>
  <text x="625" y="44" text-anchor="middle" font-family="'Segoe UI',Arial,sans-serif" font-size="10" font-weight="800" fill="#FFD150">Yr 30</text>
  <text x="541" y="155" text-anchor="middle" font-family="'Segoe UI',Arial,sans-serif" font-size="44" font-weight="900" fill="#FFFFFF" opacity="0.05">₹</text>
  <polyline points="461,144 502,128 543,106 584,78 625,48" fill="none" stroke="#FFD150" stroke-width="2" stroke-dasharray="5,3" opacity="0.75"/>
  <circle cx="625" cy="44" r="6" fill="#FFD150"/>
  <circle cx="625" cy="44" r="3" fill="#0F2548"/>
</svg>
